<?xml version="1.0" standalone="no"?>
<!DOCTYPE svg PUBLIC "-//W3C//DTD SVG 20010904//EN"
 "http://www.w3.org/TR/2001/REC-SVG-20010904/DTD/svg10.dtd">
<svg version="1.0" xmlns="http://www.w3.org/2000/svg"
 width="538.000000pt" height="538.000000pt" viewBox="0 0 538.000000 538.000000"
 preserveAspectRatio="xMidYMid meet">
<metadata>
Created by potrace 1.14, written by Peter Selinger 2001-2017
</metadata>
<g transform="translate(0.000000,538.000000) scale(0.100000,-0.100000)"
fill="#000000" stroke="none">
<path d="M43 4892 c-18 -2 -33 -9 -34 -15 -1 -14 -1 -283 0 -309 1 -16 14 -18
119 -18 l117 0 0 -722 0 -723 169 -3 c97 -1 172 1 175 7 3 5 6 331 5 725 l0
716 118 0 118 0 0 170 0 170 -27 1 c-120 2 -735 3 -760 1z"/>
<path d="M2843 4890 c-17 -5 -18 -18 -18 -170 l0 -165 118 -3 c83 -2 117 -6
118 -15 0 -7 1 -333 1 -724 l1 -713 174 0 173 0 0 725 0 725 118 0 118 0 0
170 0 170 -30 1 c-207 3 -759 3 -773 -1z"/>
<path d="M993 4822 c-20 -3 -23 -10 -24 -50 -1 -26 -2 -58 -4 -72 -1 -14 -5
-68 -9 -122 l-7 -96 173 1 173 2 1 168 c1 147 -1 167 -15 168 -53 3 -270 3
-288 1z"/>
<path d="M929 4338 c-1 -24 -2 -54 -4 -68 -1 -14 -6 -71 -10 -127 -7 -100 -6
-103 14 -103 l21 0 0 -470 0 -470 173 0 172 0 1 640 0 640 -183 0 -183 0 -1
-42z"/>
<path d="M1653 4370 c-110 -22 -179 -79 -215 -176 -21 -56 -22 -75 -24 -434
-1 -211 2 -399 8 -430 25 -137 95 -211 228 -240 71 -15 366 -7 418 12 99 37
158 105 182 213 11 51 19 330 9 340 -5 4 -189 8 -305 6 l-41 -1 -1 -107 c0
-60 -1 -114 -1 -120 -1 -9 -23 -13 -76 -13 l-75 0 0 310 0 310 75 0 c64 0 75
-2 76 -17 1 -10 1 -60 1 -111 1 -60 5 -95 12 -97 6 -2 38 -6 71 -10 33 -3 104
-10 159 -16 66 -8 101 -8 105 -1 7 12 5 257 -3 322 -15 122 -63 190 -166 238
-51 24 -67 26 -225 28 -93 1 -189 -2 -212 -6z"/>
<path d="M3759 4364 c-103 -26 -163 -84 -194 -186 -17 -56 -19 -100 -20 -413
-1 -369 6 -448 44 -523 44 -85 133 -129 281 -139 l85 -5 44 66 c24 36 45 66
47 66 1 0 2 -28 1 -62 l-1 -63 201 -3 c189 -2 202 -1 199 15 -2 10 -7 65 -10
123 -10 153 -16 194 -29 202 -9 5 -12 121 -12 472 l0 466 -172 0 c-105 0 -173
-4 -175 -10 -2 -7 -15 -7 -38 0 -43 13 -189 9 -251 -6z m287 -621 l-1 -298
-75 0 -75 0 -2 285 c-1 157 0 291 2 298 3 8 28 12 78 12 l73 0 0 -297z"/>
<path d="M4799 4376 c-2 -2 -20 -6 -39 -9 -98 -12 -177 -77 -212 -173 -21 -57
-22 -72 -23 -459 0 -361 2 -405 18 -455 25 -73 52 -112 102 -143 72 -46 132
-56 320 -53 191 3 253 18 315 77 37 36 76 117 84 174 7 54 11 313 5 320 -5 4
-217 8 -315 6 l-31 -1 1 -107 c1 -60 0 -114 -2 -120 -3 -9 -28 -13 -78 -13
l-74 0 0 310 0 310 75 0 c53 0 75 -4 76 -12 0 -7 2 -58 3 -113 l1 -100 55 -6
c30 -4 78 -10 105 -13 28 -3 82 -9 120 -12 l70 -6 -2 149 c-2 220 -21 299 -88
366 -64 64 -125 80 -316 84 -91 2 -167 1 -170 -1z"/>
<path d="M1432 2299 c-15 -6 -17 -24 -16 -160 1 -85 2 -160 3 -167 1 -10 27
-13 112 -11 67 1 114 -3 118 -9 3 -5 6 -332 5 -726 l0 -716 173 0 c158 0 173
2 174 18 0 9 1 335 1 725 l1 707 117 0 116 0 1 170 c0 116 -4 170 -11 171 -59
4 -781 2 -794 -2z"/>
<path d="M2369 1771 c-73 -23 -108 -45 -142 -89 -57 -75 -61 -101 -63 -517 -3
-464 5 -516 88 -595 56 -54 125 -72 290 -78 278 -8 382 33 441 178 21 53 22
67 24 450 3 408 0 450 -40 525 -26 50 -76 93 -135 117 -51 20 -76 23 -232 24
-143 2 -185 -1 -231 -15z m292 -333 c1 -16 1 -544 0 -580 -1 -28 -1 -28 -76
-28 l-75 0 0 310 0 310 75 0 c53 0 75 -4 76 -12z"/>
<path d="M3329 1771 c-105 -27 -160 -77 -195 -181 -17 -50 -18 -91 -19 -440 0
-349 2 -391 19 -455 16 -56 28 -78 66 -116 70 -70 114 -82 310 -86 181 -3 247
7 320 48 84 47 128 149 133 305 l2 79 -175 0 -175 0 -1 -35 c-1 -19 -2 -41 -3
-48 -1 -10 -20 -12 -73 -10 l-73 3 -3 73 -3 72 33 1 c18 0 130 0 250 0 161 0
217 3 220 12 2 7 3 125 2 262 -1 194 -5 264 -17 313 -32 122 -90 179 -209 207
-90 20 -323 18 -409 -4z m287 -401 c0 -41 -2 -81 -4 -87 -3 -9 -28 -13 -78
-13 l-74 0 0 83 c0 46 3 87 7 91 4 4 39 5 78 4 l70 -3 1 -75z"/>
</g>
</svg>
